<svg width="12" height="7" viewBox="0 0 12 7" fill="none" xmlns="http://www.w3.org/2000/svg">
<path d="M6.00308 2.06856L10.5398 6.60851C10.6192 6.68832 10.7135 6.75166 10.8174 6.79488C10.9214 6.8381 11.0328 6.86035 11.1453 6.86035C11.2579 6.86035 11.3693 6.8381 11.4732 6.79488C11.5772 6.75166 11.6715 6.68832 11.7509 6.60851C11.9105 6.44668 12 6.22849 12 6.00117C12 5.77385 11.9105 5.55566 11.7509 5.39383L6.61042 0.250196C6.45447 0.0946574 6.24456 0.00524235 6.02436 0.000557423C5.80416 -0.00412798 5.59063 0.0762782 5.42821 0.225042L0.252105 5.39063C0.0910286 5.55122 0.000344044 5.76922 9.76916e-07 5.99668C-0.00034209 6.22413 0.0896844 6.4424 0.250276 6.60348C0.410867 6.76456 0.628868 6.85524 0.856322 6.85558C1.08377 6.85593 1.30205 6.7659 1.46313 6.60531L6.00308 2.06856Z" fill="white"/>
</svg>
