<svg xmlns="http://www.w3.org/2000/svg" width="196.759" height="50" viewBox="0 0 196.759 50">
  <g id="Group_349" data-name="Group 349" transform="translate(-375 -71)">
    <g id="Group_2" data-name="Group 2" transform="translate(-342.696 -185.097)">
      <path id="Path_1" data-name="Path 1" d="M717.7,257.22a24.253,24.253,0,0,0,6.387,2.391l-3-1.6.091-.2c2.586.645,5.278.953,7.669,2.387-.335-.315-.658-.646-1.009-.942-.386-.326-.794-.625-1.2-.926-.383-.285-.775-.558-1.268-.911l6.25,1.553c-1.06-1.1-2.462-1.608-3.3-2.879,3.228,1.46,6.377,2.859,9.5,4.313a21.028,21.028,0,0,1,2.46,1.455,5.7,5.7,0,0,1,2.126,2.476,14.158,14.158,0,0,0,3.388,4.815,4.7,4.7,0,0,1-1.032-.549,19.2,19.2,0,0,1-2.877-2.811,11.225,11.225,0,0,0-5.446-3.949c-.829-.315-1.649-.657-2.507-.9,1.043.58,2.082,1.169,3.13,1.739a9.638,9.638,0,0,1,3.108,2.788c.839,1.124,1.7,2.234,2.6,3.305a12.843,12.843,0,0,0,3.065,2.525c.449-.887.6-1.616,1.177-2.028,1.324-.943,7.7-2.644,11.236-2.839s7.279,2.257,7.279,2.257a10.208,10.208,0,0,1,1.149-1.262,5.019,5.019,0,0,1,.924-.456,6.539,6.539,0,0,1-.268,1.508,8.449,8.449,0,0,0-.32,1.1c1.537.96,2.075,4.09,2.433,4.892s1.573,2.188,1.511,2.511a7.57,7.57,0,0,1-.374,1.7,1.427,1.427,0,0,1-2.072-.478c-.778-1.242-3.235-1.677-4.454-2.574a2.2,2.2,0,0,1-.885-2.232,4.341,4.341,0,0,0-2.8-.564c-2.079.063-4.427,3.242-4.427,3.242a32.053,32.053,0,0,1,4.518.5c1.238.337,1.7,1.192.736,2.124s-1.651,2.906-2.971,3.785-4.422.649-4.422.649a5.01,5.01,0,0,1,2.053-2.352,4.3,4.3,0,0,1,1.25.553c.26-.113-.038.28.55.012a6.209,6.209,0,0,0,1.984-2.27c.3-.694-.384-.606-.384-.606-1.025-.143-3.8,1.49-4.8,2.126s-1.375.413-1.375.413a8.347,8.347,0,0,1-5.419,2.09c-2.415.12-7.8,1.9-7.8,1.9-.046,5.655-8.444,8.665-8.886,9.471s.346,3.853-.063,5.456-3.681,4.053-3.411,3.531.129-2.367.365-2.733,1.26-.237,1.26-.237c-.094-.351.353-.484.353-.484.96-1.132-.334-6.531-.339-7.589s.617-.62,1.761-1.72,1.047-1.916-.234-4.456a4.528,4.528,0,0,1,.136-4.531c-3.782.279-6.365,3.451-6.68,5.583a8.253,8.253,0,0,0,1.024,5.308,3.978,3.978,0,0,1,.566,2.267,4.2,4.2,0,0,0-1.364-2.01c1.514,7.693-4,8.325-4,8.325,4.122-1.994,2.222-7.735,2.167-12.161s3.674-6.509,5.14-7.137a8.315,8.315,0,0,1,3.169-.56c.735-2.566,3.412-3.452,7.454-5.016a5.075,5.075,0,0,1-1.508.06l1.388-.643-.043-.192c-1.128-.115-2.337.186-3.482-.6a3.032,3.032,0,0,0,2.494-1.134c-2.073.172-4.079.339-5.779-1.091H732.8l.038-.148a8.456,8.456,0,0,1-5.224-2.992h2.034V269.5l-2.524-.552.022-.165.49-.266-1.425-.491.019-.109,2.57-.722-4.847-1.141,1.237-.691-2.063-.455,1.195-.572-2.221-.457-.027-.083,1.846-.394.051-.117-3.444-.925a12.263,12.263,0,0,1,3.886-.421C721.944,260.686,719.277,259.735,717.7,257.22Z" fill="#fff"/>
      <g id="Group_1" data-name="Group 1" transform="translate(737.296 288.096)">
        <path id="Path_2" data-name="Path 2" d="M834.521,312.05c-3.315-.791-4.106-1.385-4.106-2.72v-.05c0-1.138,1.039-2.053,2.82-2.053a7.863,7.863,0,0,1,4.7,1.781l1.632-2.3a9.6,9.6,0,0,0-6.283-2.176c-3.438,0-5.911,2.052-5.911,5.021v.049c0,3.191,2.078,4.279,5.763,5.169,3.216.742,3.908,1.41,3.908,2.647v.05c0,1.311-1.187,2.177-3.067,2.177a7.973,7.973,0,0,1-5.466-2.251l-1.83,2.176a10.664,10.664,0,0,0,7.222,2.771c3.636,0,6.184-1.929,6.184-5.169v-.05C840.086,314.252,838.182,312.941,834.521,312.05Z" transform="translate(-774.062 -304.435)" fill="#fff"/>
        <path id="Path_3" data-name="Path 3" d="M863.947,304.9H849.9v2.82h5.491v14.494h3.067V307.724h5.491Z" transform="translate(-781.895 -304.561)" fill="#fff"/>
        <path id="Path_4" data-name="Path 4" d="M877.972,304.718l-7.618,17.438h3.116l1.781-4.18h8.186l1.757,4.18h3.215l-7.618-17.438Zm-1.608,10.561,2.968-6.925,2.992,6.925Z" transform="translate(-788.795 -304.498)" fill="#fff"/>
        <path id="Path_5" data-name="Path 5" d="M905.125,304.9h-3.042v17.314h12.144v-2.77h-9.1Z" transform="translate(-799.499 -304.561)" fill="#fff"/>
        <path id="Path_6" data-name="Path 6" d="M928.23,304.9h-3.042v17.314h12.144v-2.77h-9.1Z" transform="translate(-807.294 -304.561)" fill="#fff"/>
        <rect id="Rectangle_5" data-name="Rectangle 5" width="3.043" height="17.314" transform="translate(133.378 0.344)" fill="#fff"/>
        <path id="Path_7" data-name="Path 7" d="M968.047,304.457a8.871,8.871,0,0,0-9.078,8.954v.05a9.054,9.054,0,0,0,18.106-.05v-.05A8.789,8.789,0,0,0,968.047,304.457Zm5.837,9a5.85,5.85,0,0,1-5.837,6.109,5.932,5.932,0,0,1-5.886-6.159v-.05a5.85,5.85,0,0,1,5.837-6.11,5.932,5.932,0,0,1,5.886,6.159Z" transform="translate(-818.69 -304.41)" fill="#fff"/>
        <path id="Path_8" data-name="Path 8" d="M1003.951,304.9v11.971L994.675,304.9h-2.819v17.314h2.993V309.9l9.547,12.317h2.548V304.9Z" transform="translate(-829.784 -304.561)" fill="#fff"/>
        <path id="Path_9" data-name="Path 9" d="M754.883,304.386l-7.609,18h5.208l1.277-3.192h6.894l1.3,3.192h5.311l-7.609-18Zm.332,10.954,2.017-5.081,1.992,5.081Z" transform="translate(-747.274 -304.386)" fill="#fff"/>
        <rect id="Rectangle_6" data-name="Rectangle 6" width="4.979" height="17.874" transform="translate(21.831 0.128)" fill="#fff"/>
        <path id="Path_10" data-name="Path 10" d="M808.521,310.732v-.051a5.542,5.542,0,0,0-1.583-4.162c-1.2-1.225-3.089-1.94-5.822-1.94h-8.451v17.874h4.953v-5.413h2.171l3.6,5.413h5.719l-4.264-6.23A5.653,5.653,0,0,0,808.521,310.732Zm-4.979.307c0,1.3-.97,2.119-2.655,2.119h-3.269v-4.29h3.243c1.66,0,2.681.715,2.681,2.12Z" transform="translate(-762.587 -304.451)" fill="#fff"/>
      </g>
    </g>
  </g>
</svg>
